<svg width="123" height="123" viewBox="0 0 123 123" fill="none" xmlns="http://www.w3.org/2000/svg">
<path d="M45.6419 116.785C21.598 109.904 4 87.7562 4 61.5C4 29.7423 29.7423 4 61.4999 4C70.9487 4 79.8639 6.27837 87.7268 10.3163" stroke="white" stroke-width="6.09622" stroke-miterlimit="10"/>
<path d="M100.414 19.1655C111.84 29.6764 119 44.7512 119 61.5C119 93.2577 93.2554 119 61.5002 119" stroke="white" stroke-width="6.09622" stroke-miterlimit="10"/>
<path d="M26.0811 38.6064C33.594 27.0065 46.65 19.332 61.4997 19.332C84.7875 19.332 103.668 38.2099 103.668 61.5001C103.668 67.3221 102.488 72.8675 100.354 77.9137" stroke="white" stroke-width="6.09622" stroke-miterlimit="10"/>
<path d="M94.3854 87.8958C86.6571 97.5134 74.7978 103.668 61.4996 103.668C38.2119 103.668 19.3315 84.7903 19.3315 61.5C19.3315 57.281 19.9507 53.2064 21.1058 49.3618" stroke="white" stroke-width="6.09622" stroke-miterlimit="10"/>
<path d="M72.123 36.8514C81.6574 40.9676 88.3334 50.453 88.3334 61.4998C88.3334 76.3202 76.32 88.3336 61.4996 88.3336C46.6792 88.3336 34.6658 76.3202 34.6658 61.4998C34.6658 46.6794 46.6792 34.666 61.4996 34.666" stroke="white" stroke-width="6.09622" stroke-miterlimit="10"/>
<path d="M62.7234 5.21387V19.8972" stroke="white" stroke-width="6.09622" stroke-miterlimit="10"/>
<path d="M88.4192 60.2764H103.103" stroke="white" stroke-width="6.09622" stroke-miterlimit="10"/>
<path d="M14.2217 94.7234L26.5728 85.7788" stroke="white" stroke-width="6.09622" stroke-miterlimit="10"/>
</svg>
