<svg width="47" height="46" viewBox="0 0 47 46" fill="none" xmlns="http://www.w3.org/2000/svg">
<g clip-path="url(#clip0)">
<path d="M33.1569 19.1347L35.8275 7.03867L36.9105 22.3085L33.1569 19.1347Z" fill="#F7A21B"/>
<path d="M26.2943 21.1001L30.8852 23.3905L26.7771 12.136L26.2943 21.1001Z" fill="#F7A21B"/>
<path d="M22.9079 25.7861L12.4291 25.5053L24.3944 30.9729L22.9079 25.7861Z" fill="#F7A21B"/>
<path d="M18.9609 32.0891L6.45989 33.2539L22.2261 35.7665L18.9609 32.0891Z" fill="#F7A21B"/>
<path d="M24.3392 40.9565C20.6879 38.8113 11.7823 35.3145 6.91238 33.2719L19.2688 34.7542L12.4988 25.4433C12.4988 25.4433 15.6988 26.7313 17.7867 27.3947C19.6073 27.9732 22.4841 28.681 22.4841 28.681C22.4841 28.681 18.6373 19.9929 14.3001 12.7898C21.1835 17.7323 29.3203 22.6113 29.3203 22.6113L28.2518 17.3333L26.731 11.8972L35.6267 20.2302L35.6172 7.78518L40.9412 26.2158C32.0913 29.5959 27.6923 35.6006 24.3392 40.9565Z" fill="#FFBE32"/>
<path d="M36.647 6.55622C37.3088 7.30164 37.3066 8.38425 36.642 8.97431C35.9775 9.56437 34.9022 9.43843 34.2404 8.69302C33.5785 7.9476 33.5807 6.86498 34.2453 6.27493C34.9099 5.68487 35.9851 5.81081 36.647 6.55622Z" fill="#FF8F2F"/>
<path d="M27.7256 10.6992C28.3874 11.4446 28.3852 12.5272 27.7207 13.1173C27.0561 13.7073 25.9808 13.5814 25.319 12.836C24.6571 12.0906 24.6593 11.008 25.3239 10.4179C25.9885 9.82784 27.0637 9.95378 27.7256 10.6992Z" fill="#FF8F2F"/>
<path d="M14.9824 11.1697C15.6443 11.9151 15.6421 12.9977 14.9775 13.5877C14.3129 14.1778 13.2377 14.0519 12.5758 13.3064C11.914 12.561 11.9162 11.4784 12.5807 10.8884C13.2453 10.2983 14.3206 10.4242 14.9824 11.1697Z" fill="#FF8F2F"/>
<path d="M13.5286 24.0742C14.1904 24.8196 14.1882 25.9022 13.5236 26.4923C12.8591 27.0823 11.7838 26.9564 11.122 26.211C10.4601 25.4656 10.4623 24.383 11.1269 23.7929C11.7915 23.2028 12.8667 23.3288 13.5286 24.0742Z" fill="#FF8F2F"/>
<path d="M7.31518 32.0396C7.97703 32.7851 7.97483 33.8677 7.31026 34.4577C6.6457 35.0478 5.57043 34.9219 4.90858 34.1764C4.24674 33.431 4.24894 32.3484 4.91351 31.7584C5.57807 31.1683 6.65334 31.2942 7.31518 32.0396Z" fill="#FF8F2F"/>
</g>
<defs>
<clipPath id="clip0">
<rect width="47" height="46" fill="white"/>
</clipPath>
</defs>
</svg>
