<svg fill="none" height="225" viewBox="0 0 520 225" width="520" xmlns="http://www.w3.org/2000/svg" xmlns:xlink="http://www.w3.org/1999/xlink"><clipPath id="a"><path d="m0 0h520v225h-520z"/></clipPath><clipPath id="b"><path d="m254.673 38.5538h65.8063v64.4062h-65.8063z" transform="matrix(.97883025 .20467373 -.20467373 .97883025 13.282313 -51.308698)"/></clipPath><g clip-path="url(#a)"><g clip-path="url(#b)"><path d="m294.631 74.2796 7.126-15.8122-2.891 21.2375z" fill="#f7a21b"/><path d="m284.663 75.0066 5.635 4.4546-2.405-16.6015z" fill="#f7a21b"/><path d="m278.679 80.4583-14.281-3.3879 14.832 10.9223z" fill="#f7a21b"/><path d="m271.463 87.9654-17.466-1.9861 20.887 7.9617z" fill="#f7a21b"/><path d="m276.293 101.659c-4.389-3.9859-15.592-11.3303-21.681-15.5253l16.509 5.5724-6.61-14.7005s4.017 2.6822 6.688 4.1897c2.33 1.3145 6.069 3.109 6.069 3.109s-2.782-13.0093-6.662-24.1241c8.017 8.7462 17.771 17.7646 17.771 17.7646l.048-7.5396-.527-7.886 9.804 13.9696 3.553-17.0585 2.015 26.7847c-13.097 2.0963-20.847 9.065-26.977 15.444z" fill="#ffbe32"/><g fill="#ff8f2f"><path d="m303.019 58.0411c.693 1.2113.38 2.6943-.7 3.3126-1.08.6182-2.517.1375-3.211-1.0738-.693-1.2113-.38-2.6943.7-3.3126 1.08-.6182 2.517-.1375 3.211 1.0738z"/><path d="m289.605 61.1624c.693 1.2112.38 2.6943-.7 3.3125-1.08.6183-2.517.1375-3.211-1.0737-.693-1.2113-.38-2.6944.7-3.3126s2.517-.1375 3.211 1.0738z"/><path d="m272.006 58.1553c.693 1.2112.38 2.6943-.7 3.3126-1.08.6182-2.517.1374-3.211-1.0738-.693-1.2113-.38-2.6943.7-3.3126 1.08-.6182 2.517-.1375 3.211 1.0738z"/><path d="m266.315 75.4243c.694 1.2112.38 2.6943-.7 3.3125-1.079.6183-2.517.1375-3.21-1.0737-.694-1.2113-.381-2.6944.699-3.3126s2.518-.1375 3.211 1.0738z"/><path d="m255.517 84.5603c.693 1.2113.38 2.6944-.7 3.3126s-2.517.1375-3.211-1.0738c-.693-1.2112-.38-2.6943.7-3.3125 1.08-.6183 2.517-.1375 3.211 1.0737z"/></g></g><path clip-rule="evenodd" d="m498.571 96.6718c3.73-1.6953 8.137-1.6953 12.206.6782 4.069 2.712 6.442 7.459 6.103 12.545-1.017 8.477-9.493 12.885-16.953 10.172-3.39-1.356-5.764-3.73-7.12-6.781-.678-1.695-2.035-3.052-3.73-3.73-3.051-1.356-6.442-.339-8.137 2.374-2.374 3.39-5.086 6.442-8.138 9.154-2.373 2.035-3.051 5.425-1.695 8.138.678 1.695 2.373 2.712 4.069 3.39 3.051 1.018 5.764 3.052 7.459 6.104 3.73 7.12 0 16.275-8.138 18.309-4.746 1.356-9.832-.339-12.884-4.069-3.051-3.729-3.391-8.137-2.373-11.867.678-1.695.678-3.73-.339-5.425-1.357-2.712-4.408-4.069-7.46-3.391h-.678c-3.051.679-5.086 3.391-5.086 6.443v6.442c0 1.695.678 3.39 2.035 4.747 2.373 2.034 3.729 5.425 3.729 8.815 0 7.799-7.459 14.241-15.936 12.207-4.408-1.018-8.137-4.408-9.154-8.816-1.018-4.747.339-9.155 3.39-12.206 1.356-1.357 2.374-3.052 2.374-5.764v-5.425c0-3.052-2.035-5.764-5.086-6.443-3.391-.678-6.442-1.695-9.155-3.051-2.712-1.356-6.103-.339-8.137 2.034-1.018 1.696-1.696 3.391-1.357 5.425.339 3.391-.678 6.781-2.712 9.494-5.086 6.103-14.58 6.781-20.005 0-3.051-3.73-3.73-8.477-1.695-12.884 2.034-4.747 6.103-7.46 10.172-7.799 1.695-.339 3.729-1.356 4.747-2.712 2.034-2.374 2.034-6.103 0-8.477-2.713-3.73-5.086-7.459-6.782-11.528-1.356-2.713-4.408-4.4078-7.459-4.0688l-10.511 1.6958c-1.695.339-3.391 1.695-4.408 3.051-2.034 2.713-5.086 4.408-8.476 5.086-7.799 1.356-15.258-5.086-14.58-13.5625.339-4.7468 3.73-9.1547 8.137-10.85 4.069-1.6953 8.477-.6781 11.529 1.3563 2.034 1.3562 4.407 1.6953 6.781 1.3562l6.103-1.0172c4.408-.6781 7.798-4.4078 8.476-8.8156v-.339c.34-3.0516-1.356-6.1032-4.407-7.1204-1.696-.6781-3.73-.339-5.425.3391-3.052 1.3563-6.443 1.6953-9.833.3391-7.46-2.7125-10.511-11.8672-5.764-18.9875 2.373-3.7297 7.12-5.7641 11.528-5.425 5.086.6781 8.816 3.7297 10.511 7.4593.678 1.6954 2.034 3.0516 3.73 3.7297 3.051 1.3563 6.442.3391 8.137-2.3734 2.373-3.7297 5.425-6.7813 8.477-9.4938 2.034-1.6953 2.712-5.0859 1.356-7.7984l-.339-.3391c-.678-1.6953-2.374-2.7125-4.069-3.3906-3.052-.6781-5.764-3.0515-7.459-6.1031-3.73-7.1203 0-16.275 8.137-18.30939 4.747-1.35625 9.833.33906 12.885 4.06879 3.051 3.3906 3.729 8.1375 2.373 11.8672-.678 1.6953-.678 3.3906.339 5.0859v.3391c1.356 2.7125 4.408 4.0687 7.459 3.3906h.679c3.051-.6781 5.085-3.3906 5.085-6.4422v-.3391c0-1.6953-.678-3.3906-2.034-4.7468-2.373-2.0344-3.73-5.425-3.73-8.8157 0-7.79841 7.46-14.2406 15.936-12.20622 4.408 1.01718 8.138 4.40781 9.155 8.81562 1.356 4.7469-.339 9.1547-3.391 12.2063-1.356 1.3562-2.034 3.0515-2.034 4.7468v.3391c0 3.0516 2.034 5.7641 5.086 6.4422 2.373.6781 4.408 1.3562 6.442 2.0343v.0001c4.747 1.6953 10.511.339 13.563-3.7297l.678-.6782c1.695-2.3734 2.373-5.0859 2.373-7.7984 0-3.0516.678-6.1031 2.713-8.4766 5.086-6.44215 14.579-6.78121 20.004 0 3.052 3.7297 3.391 9.1547 1.357 13.5625-2.035 3.7297-5.086 6.1032-8.816 6.7813-2.712.6781-5.425 2.0344-7.12 4.4078l-.678 1.0172c-3.391 4.0687-3.391 9.8328-.339 14.2406 2.034 3.0516 3.729 6.1031 5.085 9.4938 1.357 2.7125 4.069 4.4078 7.121 4.0687h.339c1.695-.339 3.39-1.6953 4.408-3.0515 2.034-2.7125 5.086-4.4079 8.476-5.086 7.799-1.3562 15.258 5.086 14.58 13.5625-.339 4.7469-3.73 9.1547-8.138 10.85-4.407 1.6953-8.476.6781-11.867-1.6953-1.356-1.0172-3.39-1.6953-5.086-1.3562h-.678c-3.051.339-5.086 2.7125-5.425 5.764-.339.6781-.339 1.6953-.339 2.3735-.339 3.0515 1.356 5.764 4.069 6.7812h.339c2.034.6781 3.73.3391 5.425-.3391zm-56.284-28.8202c0 8.4266-6.832 15.2578-15.258 15.2578-8.427 0-15.258-6.8312-15.258-15.2578 0-8.4267 6.831-15.2579 15.258-15.2579 8.426 0 15.258 6.8312 15.258 15.2579zm-1.696 49.1644c6.554 0 11.867-5.314 11.867-11.868 0-6.5536-5.313-11.8668-11.867-11.8668s-11.867 5.3132-11.867 11.8668c0 6.554 5.313 11.868 11.867 11.868zm28.821-45.7738c0 4.6815-3.796 8.4765-8.477 8.4765-4.682 0-8.477-3.795-8.477-8.4765s3.795-8.4766 8.477-8.4766c4.681 0 8.477 3.7951 8.477 8.4766z" fill="#fc5b1e" fill-rule="evenodd"/><g fill="#fff"><path d="m177.77 136.065.34-10.407 29.354.602-.162 11.811z"/><path d="m146.141 202.683c-1.349-8.906-4.783-13.737-10.302-14.491-.9-.122-1.83-.183-2.791-.183-4.517 0-8.033 1.549-10.547 4.647-2.33 2.873-3.496 6.613-3.496 11.219 0 .897.062 1.916.184 3.057.43 3.975.982 6.889 1.656 8.744 1.145 3.159 3.005 5.35 5.58 6.573 1.411.672 4.457 1.09 9.138 1.253s8.299-3.791 10.854-11.862l-8.585-.611c-1.288 2.609-2.78 3.913-4.477 3.913-.797 0-1.656-.306-2.576-.917-2.534-1.671-3.802-4.249-3.802-7.735 0-.346.021-.774.062-1.284.327-4.157 2.126-6.358 5.396-6.603 3.271-.245 5.151 1.457 5.642 5.105z"/><path d="m148.134 187.795.981 35.982h8.371l.153-13.818h5.887l-.307 13.818h8.586l1.073-33.659-8.555-.795-.306 12.749h-6.378l-.061-13.757z"/><path d="m188.086 205.71-1.748-7.368-1.747 7.52zm-4.814 5.839-2.79 11.984-7.88-1.223 9.873-34.974h7.788l10.486 33.262-8.646 2.201-2.637-11.25z"/><path d="m209.825 188.834c-.409 5.788-.613 11.026-.613 15.714 0 4.667.204 8.794.613 12.381l11.774-1.467-.245 9.049-19.624.489-1.226-36.685z"/><path d="m231.963 188.834c-.409 5.788-.613 11.026-.613 15.714 0 4.667.204 8.794.613 12.381l11.774-1.467-.245 9.049-19.624.489-1.226-36.685z"/><path d="m245.577 187-.798 36.716 21.157.306.215-9.538h-12.909v-4.892l11.743.245.246-7.827h-11.989v-5.136l14.104.245-.03-9.844z"/><path d="m268.297 190.76c-.041 2.935-.061 5.87-.061 8.805 0 7.846.173 15.744.521 23.692h8.095c-.695-5.115-1.043-9.833-1.043-14.154 0-.836.01-1.661.031-2.476l8.37 17.395 8.095-.275c-.838-7.439-1.257-14.563-1.257-21.37 0-4.239.163-8.356.49-12.35l-8.34-.276c-.04 1.59-.061 3.108-.061 4.556 0 5.278.266 9.466.797 12.564l-6.561-15.866z"/><path d="m321.832 198.097c-.593-6.032-3.843-9.426-9.75-10.18-.961-.122-1.932-.183-2.913-.183-5.11 0-9.004 1.752-11.682 5.258-2.412 3.139-3.618 7.327-3.618 12.565 0 .856.02 1.61.061 2.262.429 6.766 2.964 11.199 7.604 13.298 3.189 1.447 6.408 2.171 9.659 2.171 1.471 0 2.923-.143 4.354-.428 4.721-.937 7.43-6.42 8.125-16.447l-13.369-1.284-1.563 5.564 6.285.733c-1.144 3.037-2.841 4.555-5.09 4.555-.838 0-1.758-.214-2.759-.641-3.352-1.448-5.029-4.444-5.029-8.988 0-.571.011-1.009.031-1.315.348-5.279 2.146-8.376 5.396-9.294.573-.163 1.125-.244 1.656-.244 2.351 0 4.017 1.702 4.998 5.105z"/><path d="m325.236 187-.798 36.716 21.157.306.215-9.538h-12.909v-4.892l11.743.245.246-7.827h-11.989v-5.136l14.104.245-.03-9.844z"/><path d="m.206393 105.84 5.420877 76.898 17.85713-.772-.9509-29.58 12.5589-.543.6238 29.594 18.315-.791-.8235-72.117-18.3231-.911.5249 27.304-13.6054.588-1.4031-29.429z"/><path d="m58.2796 148.547c-.1337-11.178 2.1515-20.976 6.8556-29.393 5.6354-10.117 13.6206-15.399 23.9555-15.845 10.7709-.466 18.6723 1.923 23.7053 7.167 4.073 4.28 7.494 12.171 10.263 23.672 1.066 4.454 1.687 8.709 1.862 12.764.372 8.591-1.41 15.876-5.346 21.857-5.739 8.724-14.832 13.158-27.2765 13.303-12.445.144-21.1068-2.649-25.9855-8.38-5.2446-6.108-7.9223-14.489-8.0334-25.145zm41.8134-19.632c-3.5409-3.08-6.8157-4.555-9.8246-4.425-3.663.159-6.937 2.747-9.822 7.765-2.6005 4.525-3.8103 8.88-3.6293 13.066.1715 3.969 1.6104 7.948 4.3168 11.937 3.0343 4.5 6.4047 6.67 10.1113 6.51 3.8811-.168 7.5513-2.686 11.0108-7.554 3.253-4.596 4.791-8.923 4.616-12.978-.205-4.753-2.465-9.527-6.779-14.321z"/><path d="m122.829 98.5081c.812 26.8769 3.543 53.6709 8.193 80.3829l17.701-2.863c-2.53-10.026-4.213-20.657-5.048-31.893l20.679 29.645 17.84-11.781-26.749-24.532 20.417-37.057-18.954-1.8676-14.339 32.1406c-.281-3.482-.499-6.99-.651-10.522-.306-7.065-.375-14.226-.208-21.486z"/><path d="m215.534 91.8797 2.462 82.7273 19.415.406-.891-20.605 18.435 20.174 23.559-.756-29.432-32.019c10.283-9.75 15.257-18.484 14.923-26.202-.179-4.143-1.896-7.979-5.15-11.508-8.389-9.118-21.022-13.3122-37.898-12.5827-1.788.0772-3.595.1991-5.423.3654zm19.915 37.7383-.905-20.932c8.12.873 12.286 3.751 12.497 8.635.171 3.968-3.693 8.067-11.592 12.297z"/><path d="m272.696 139.28c-.134-11.179 2.151-20.977 6.855-29.393 5.636-10.1176 13.621-15.3996 23.956-15.8463 10.771-.4655 18.673 1.9234 23.705 7.1673 4.073 4.28 7.494 12.171 10.263 23.672 1.067 4.454 1.687 8.709 1.863 12.764.371 8.591-1.411 15.876-5.347 21.857-5.739 8.724-14.831 13.158-27.276 13.303-12.445.144-21.107-2.649-25.986-8.379-5.244-6.109-7.922-14.49-8.033-25.145zm41.813-19.633c-3.541-3.08-6.816-4.555-9.824-4.425-3.663.159-6.937 2.747-9.822 7.765-2.601 4.525-3.811 8.88-3.63 13.067.172 3.968 1.611 7.947 4.317 11.937 3.034 4.499 6.405 6.669 10.111 6.509 3.882-.168 7.552-2.686 11.011-7.553 3.253-4.597 4.792-8.923 4.616-12.979-.205-4.753-2.465-9.527-6.779-14.321z"/><path d="m341.838 97.4299c.184 6.2831.412 12.5641.684 18.8441.725 16.789 1.826 33.67 3.303 50.645l17.268-.746c-1.956-10.882-3.133-20.945-3.533-30.189-.077-1.788-.132-3.555-.163-5.301l19.465 36.446 17.243-1.335c-2.476-15.839-4.028-31.041-4.658-45.606-.392-9.07-.424-17.894-.095-26.471l-17.818.1803c.06 3.4051.157 6.6557.291 9.7517.488 11.294 1.442 20.231 2.863 26.81l-15.466-33.3427z"/><path d="m428.516 125.729-4.41-15.603-3.032 16.252zm-9.729 12.937-4.844 25.899-16.924-1.89 17.828-75.7405 16.614-.7181 25.447 70.1996-18.243 5.507-6.665-23.828z"/></g></g></svg>