<svg fill="none" height="95" viewBox="0 0 109 95" width="109" xmlns="http://www.w3.org/2000/svg"><path d="m101.786 13.5714h-16.9646l-3.3928-6.78569s-3.0332-6.78571-6.7857-6.78571h-40.7143c-3.7457 0-6.7857 6.78571-6.7857 6.78571l-3.3929 6.78569h-16.96429c-3.74571 0-6.78571 3.0332-6.78571 6.7857v67.8572c0 3.7457 3.04 6.7857 6.78571 6.7857h95.00029c3.752 0 6.785-3.04 6.785-6.7857v-67.8572c0-3.7525-3.033-6.7857-6.785-6.7857zm0 71.25c0 1.8661-1.527 3.3929-3.3931 3.3929h-88.2143c-1.87289 0-3.39289-1.5268-3.39289-3.3929v-61.0714c0-1.8729 1.52-3.3929 3.39289-3.3929h17.1814c-.0746-.285 5.2114-9.3371 5.2114-9.3371s2.4293-4.23429 5.4286-4.23429h32.5714c2.9925 0 5.4218 4.23429 5.4218 4.23429s5.2861 9.0521 5.2114 9.3371h17.1883c1.8661 0 3.3931 1.52 3.3931 3.3929zm-47.5003-62.6785c-14.9896 0-27.1428 12.1464-27.1428 27.1428 0 14.9897 12.1532 27.1429 27.1428 27.1429 14.9897 0 27.1429-12.1532 27.1429-27.1429 0-14.9964-12.1532-27.1428-27.1429-27.1428zm0 47.5c-11.2439 0-20.3571-9.12-20.3571-20.3572 0-11.2439 9.1132-20.3639 20.3571-20.3639 11.2372 0 20.3572 9.12 20.3572 20.3639 0 11.2372-9.12 20.3572-20.3572 20.3572z" fill="#fff"/></svg>