<svg width="520" height="225" viewBox="0 0 520 225" fill="none" xmlns="http://www.w3.org/2000/svg">
<g clip-path="url(#clip0)">
<g clip-path="url(#clip1)">
<path d="M291.959 78.516L297.049 67.2226L294.983 82.3908L291.959 78.516Z" fill="#F7A21B"/>
<path d="M284.839 79.0352L288.864 82.2167L287.147 70.3597L284.839 79.0352Z" fill="#F7A21B"/>
<path d="M280.566 82.9289L270.366 80.5092L280.959 88.3101L280.566 82.9289Z" fill="#F7A21B"/>
<path d="M275.412 88.2906L262.937 86.8721L277.855 92.5585L275.412 88.2906Z" fill="#F7A21B"/>
<path d="M278.861 98.0711C275.727 95.224 267.725 89.9784 263.376 86.9823L275.168 90.9623L270.447 80.4629C270.447 80.4629 273.316 82.3786 275.223 83.4552C276.887 84.3941 279.558 85.6757 279.558 85.6757C279.558 85.6757 277.571 76.3843 274.8 68.4459C280.526 74.6926 287.492 81.1337 287.492 81.1337L287.526 75.7488L287.15 70.1165L294.152 80.0938L296.69 67.9103L298.129 87.0404C288.775 88.5376 283.24 93.5148 278.861 98.0711Z" fill="#FFBE32"/>
<path d="M297.95 66.9182C298.445 67.7832 298.221 68.8425 297.45 69.284C296.679 69.7256 295.652 69.3822 295.157 68.5171C294.662 67.652 294.885 66.5928 295.657 66.1513C296.428 65.7097 297.455 66.0531 297.95 66.9182Z" fill="#FF8F2F"/>
<path d="M288.369 69.1474C288.864 70.0125 288.641 71.0717 287.869 71.5133C287.098 71.9548 286.071 71.6115 285.576 70.7464C285.081 69.8813 285.305 68.822 286.076 68.3805C286.847 67.9389 287.874 68.2823 288.369 69.1474Z" fill="#FF8F2F"/>
<path d="M275.8 66.9997C276.295 67.8648 276.071 68.924 275.3 69.3656C274.529 69.8071 273.502 69.4638 273.007 68.5987C272.511 67.7336 272.735 66.6743 273.506 66.2328C274.278 65.7912 275.304 66.1346 275.8 66.9997Z" fill="#FF8F2F"/>
<path d="M271.735 79.3335C272.23 80.1986 272.007 81.2578 271.235 81.6994C270.464 82.1409 269.437 81.7976 268.942 80.9325C268.447 80.0674 268.671 79.0081 269.442 78.5666C270.213 78.125 271.24 78.4684 271.735 79.3335Z" fill="#FF8F2F"/>
<path d="M264.023 85.8586C264.518 86.7237 264.295 87.7829 263.523 88.2245C262.752 88.666 261.725 88.3227 261.23 87.4576C260.735 86.5925 260.958 85.5332 261.73 85.0917C262.501 84.6501 263.528 84.9935 264.023 85.8586Z" fill="#FF8F2F"/>
</g>
<path fill-rule="evenodd" clip-rule="evenodd" d="M498.571 96.6718C502.301 94.9765 506.708 94.9765 510.777 97.35C514.846 100.062 517.219 104.809 516.88 109.895C515.863 118.372 507.387 122.78 499.927 120.067C496.537 118.711 494.163 116.337 492.807 113.286C492.129 111.591 490.772 110.234 489.077 109.556C486.026 108.2 482.635 109.217 480.94 111.93C478.566 115.32 475.854 118.372 472.802 121.084C470.429 123.119 469.751 126.509 471.107 129.222C471.785 130.917 473.48 131.934 475.176 132.612C478.227 133.63 480.94 135.664 482.635 138.716C486.365 145.836 482.635 154.991 474.497 157.025C469.751 158.381 464.665 156.686 461.613 152.956C458.562 149.227 458.222 144.819 459.24 141.089C459.918 139.394 459.918 137.359 458.901 135.664C457.544 132.952 454.493 131.595 451.441 132.273H450.763C447.712 132.952 445.677 135.664 445.677 138.716V145.158C445.677 146.853 446.355 148.548 447.712 149.905C450.085 151.939 451.441 155.33 451.441 158.72C451.441 166.519 443.982 172.961 435.505 170.927C431.097 169.909 427.368 166.519 426.351 162.111C425.333 157.364 426.69 152.956 429.741 149.905C431.097 148.548 432.115 146.853 432.115 144.141V138.716C432.115 135.664 430.08 132.952 427.029 132.273C423.638 131.595 420.587 130.578 417.874 129.222C415.162 127.866 411.771 128.883 409.737 131.256C408.719 132.952 408.041 134.647 408.38 136.681C408.719 140.072 407.702 143.462 405.668 146.175C400.582 152.278 391.088 152.956 385.663 146.175C382.612 142.445 381.933 137.698 383.968 133.291C386.002 128.544 390.071 125.831 394.14 125.492C395.835 125.153 397.869 124.136 398.887 122.78C400.921 120.406 400.921 116.677 398.887 114.303C396.174 110.573 393.801 106.844 392.105 102.775C390.749 100.062 387.697 98.3672 384.646 98.7062L374.135 100.402C372.44 100.741 370.744 102.097 369.727 103.453C367.693 106.166 364.641 107.861 361.251 108.539C353.452 109.895 345.993 103.453 346.671 94.9765C347.01 90.2297 350.401 85.8218 354.808 84.1265C358.877 82.4312 363.285 83.4484 366.337 85.4828C368.371 86.839 370.744 87.1781 373.118 86.839L379.221 85.8218C383.629 85.1437 387.019 81.414 387.697 77.0062V76.6672C388.037 73.6156 386.341 70.564 383.29 69.5468C381.594 68.8687 379.56 69.2078 377.865 69.8859C374.813 71.2422 371.422 71.5812 368.032 70.225C360.572 67.5125 357.521 58.3578 362.268 51.2375C364.641 47.5078 369.388 45.4734 373.796 45.8125C378.882 46.4906 382.612 49.5422 384.307 53.2718C384.985 54.9672 386.341 56.3234 388.037 57.0015C391.088 58.3578 394.479 57.3406 396.174 54.6281C398.547 50.8984 401.599 47.8468 404.651 45.1343C406.685 43.439 407.363 40.0484 406.007 37.3359L405.668 36.9968C404.99 35.3015 403.294 34.2843 401.599 33.6062C398.547 32.9281 395.835 30.5547 394.14 27.5031C390.41 20.3828 394.14 11.2281 402.277 9.19371C407.024 7.83746 412.11 9.53277 415.162 13.2625C418.213 16.6531 418.891 21.4 417.535 25.1297C416.857 26.825 416.857 28.5203 417.874 30.2156V30.5547C419.23 33.2672 422.282 34.6234 425.333 33.9453H426.012C429.063 33.2672 431.097 30.5547 431.097 27.5031V27.164C431.097 25.4687 430.419 23.7734 429.063 22.4172C426.69 20.3828 425.333 16.9922 425.333 13.6015C425.333 5.80309 432.793 -0.6391 441.269 1.39528C445.677 2.41246 449.407 5.80309 450.424 10.2109C451.78 14.9578 450.085 19.3656 447.033 22.4172C445.677 23.7734 444.999 25.4687 444.999 27.164V27.5031C444.999 30.5547 447.033 33.2672 450.085 33.9453C452.458 34.6234 454.493 35.3015 456.527 35.9796L456.527 35.9797C461.274 37.675 467.038 36.3187 470.09 32.25L470.768 31.5718C472.463 29.1984 473.141 26.4859 473.141 23.7734C473.141 20.7218 473.819 17.6703 475.854 15.2968C480.94 8.85465 490.433 8.51559 495.858 15.2968C498.91 19.0265 499.249 24.4515 497.215 28.8593C495.18 32.589 492.129 34.9625 488.399 35.6406C485.687 36.3187 482.974 37.675 481.279 40.0484L480.601 41.0656C477.21 45.1343 477.21 50.8984 480.262 55.3062C482.296 58.3578 483.991 61.4093 485.347 64.8C486.704 67.5125 489.416 69.2078 492.468 68.8687H492.807C494.502 68.5297 496.197 67.1734 497.215 65.8172C499.249 63.1047 502.301 61.4093 505.691 60.7312C513.49 59.375 520.949 65.8172 520.271 74.2937C519.932 79.0406 516.541 83.4484 512.133 85.1437C507.726 86.839 503.657 85.8218 500.266 83.4484C498.91 82.4312 496.876 81.7531 495.18 82.0922H494.502C491.451 82.4312 489.416 84.8047 489.077 87.8562C488.738 88.5343 488.738 89.5515 488.738 90.2297C488.399 93.2812 490.094 95.9937 492.807 97.0109H493.146C495.18 97.689 496.876 97.35 498.571 96.6718ZM442.287 67.8516C442.287 76.2782 435.455 83.1094 427.029 83.1094C418.602 83.1094 411.771 76.2782 411.771 67.8516C411.771 59.4249 418.602 52.5937 427.029 52.5937C435.455 52.5937 442.287 59.4249 442.287 67.8516ZM440.591 117.016C447.145 117.016 452.458 111.702 452.458 105.148C452.458 98.5944 447.145 93.2812 440.591 93.2812C434.037 93.2812 428.724 98.5944 428.724 105.148C428.724 111.702 434.037 117.016 440.591 117.016ZM469.412 71.2422C469.412 75.9237 465.616 79.7187 460.935 79.7187C456.253 79.7187 452.458 75.9237 452.458 71.2422C452.458 66.5607 456.253 62.7656 460.935 62.7656C465.616 62.7656 469.412 66.5607 469.412 71.2422Z" fill="#FC5B1E"/>
<path d="M177.77 136.065L178.11 125.658L207.464 126.26L207.302 138.071L177.77 136.065Z" fill="white"/>
<path d="M146.141 202.683C144.792 193.777 141.358 188.946 135.839 188.192C134.939 188.07 134.009 188.009 133.048 188.009C128.531 188.009 125.015 189.558 122.501 192.656C120.171 195.529 119.005 199.269 119.005 203.875C119.005 204.772 119.067 205.791 119.189 206.932C119.619 210.907 120.171 213.821 120.845 215.676C121.99 218.835 123.85 221.026 126.425 222.249C127.836 222.921 130.882 223.339 135.563 223.502C140.244 223.665 143.862 219.711 146.417 211.64L137.832 211.029C136.544 213.638 135.052 214.942 133.355 214.942C132.558 214.942 131.699 214.636 130.779 214.025C128.245 212.354 126.977 209.776 126.977 206.29C126.977 205.944 126.998 205.516 127.039 205.006C127.366 200.849 129.165 198.648 132.435 198.403C135.706 198.158 137.586 199.86 138.077 203.508L146.141 202.683Z" fill="white"/>
<path d="M148.134 187.795L149.115 223.777H157.486L157.639 209.959H163.526L163.219 223.777H171.805L172.878 190.118L164.323 189.323L164.017 202.072H157.639L157.578 188.315L148.134 187.795Z" fill="white"/>
<path d="M188.086 205.71L186.338 198.342L184.591 205.862L188.086 205.71ZM183.272 211.549L180.482 223.533L172.602 222.31L182.475 187.336H190.263L200.749 220.598L192.103 222.799L189.466 211.549H183.272Z" fill="white"/>
<path d="M209.825 188.834C209.416 194.622 209.212 199.86 209.212 204.548C209.212 209.215 209.416 213.342 209.825 216.929L221.599 215.462L221.354 224.511L201.73 225L200.504 188.315L209.825 188.834Z" fill="white"/>
<path d="M231.963 188.834C231.554 194.622 231.35 199.86 231.35 204.548C231.35 209.215 231.554 213.342 231.963 216.929L243.737 215.462L243.492 224.511L223.868 225L222.642 188.315L231.963 188.834Z" fill="white"/>
<path d="M245.577 187L244.779 223.716L265.936 224.022L266.151 214.484H253.242V209.592L264.985 209.837L265.231 202.01H253.242V196.874L267.346 197.119L267.316 187.275L245.577 187Z" fill="white"/>
<path d="M268.297 190.76C268.256 193.695 268.236 196.63 268.236 199.565C268.236 207.411 268.409 215.309 268.757 223.257H276.852C276.157 218.142 275.809 213.424 275.809 209.103C275.809 208.267 275.819 207.442 275.84 206.627L284.21 224.022L292.305 223.747C291.467 216.308 291.048 209.184 291.048 202.377C291.048 198.138 291.211 194.021 291.538 190.027L283.198 189.751C283.158 191.341 283.137 192.859 283.137 194.307C283.137 199.585 283.403 203.773 283.934 206.871L277.373 191.005L268.297 190.76Z" fill="white"/>
<path d="M321.832 198.097C321.239 192.065 317.989 188.671 312.082 187.917C311.121 187.795 310.15 187.734 309.169 187.734C304.059 187.734 300.165 189.486 297.487 192.992C295.075 196.131 293.869 200.319 293.869 205.557C293.869 206.413 293.889 207.167 293.93 207.819C294.359 214.585 296.894 219.018 301.534 221.117C304.723 222.564 307.942 223.288 311.193 223.288C312.664 223.288 314.116 223.145 315.547 222.86C320.268 221.923 322.977 216.44 323.672 206.413L310.303 205.129L308.74 210.693L315.025 211.426C313.881 214.463 312.184 215.981 309.935 215.981C309.097 215.981 308.177 215.767 307.176 215.34C303.824 213.892 302.147 210.896 302.147 206.352C302.147 205.781 302.158 205.343 302.178 205.037C302.526 199.758 304.324 196.661 307.574 195.743C308.147 195.58 308.699 195.499 309.23 195.499C311.581 195.499 313.247 197.201 314.228 200.604L321.832 198.097Z" fill="white"/>
<path d="M325.236 187L324.438 223.716L345.595 224.022L345.81 214.484H332.901V209.592L344.644 209.837L344.89 202.01H332.901V196.874L347.005 197.119L346.975 187.275L325.236 187Z" fill="white"/>
<path d="M0.206393 105.84L5.62727 182.738L23.4844 181.966L22.5335 152.386L35.0924 151.843L35.7162 181.437L54.0312 180.646L53.2077 108.529L34.8846 107.618L35.4095 134.922L21.8041 135.51L20.401 106.081L0.206393 105.84Z" fill="white"/>
<path d="M58.2796 148.547C58.1459 137.369 60.4311 127.571 65.1352 119.154C70.7706 109.037 78.7558 103.755 89.0907 103.309C99.8616 102.843 107.763 105.232 112.796 110.476C116.869 114.756 120.29 122.647 123.059 134.148C124.125 138.602 124.746 142.857 124.921 146.912C125.293 155.503 123.511 162.788 119.575 168.769C113.836 177.493 104.743 181.927 92.2985 182.072C79.8535 182.216 71.1917 179.423 66.313 173.692C61.0684 167.584 58.3907 159.203 58.2796 148.547ZM100.093 128.915C96.5521 125.835 93.2773 124.36 90.2684 124.49C86.6054 124.649 83.3314 127.237 80.4464 132.255C77.8459 136.78 76.6361 141.135 76.8171 145.321C76.9886 149.29 78.4275 153.269 81.1339 157.258C84.1682 161.758 87.5386 163.928 91.2452 163.768C95.1263 163.6 98.7965 161.082 102.256 156.214C105.509 151.618 107.047 147.291 106.872 143.236C106.667 138.483 104.407 133.709 100.093 128.915Z" fill="white"/>
<path d="M122.829 98.5081C123.641 125.385 126.372 152.179 131.022 178.891L148.723 176.028C146.193 166.002 144.51 155.371 143.675 144.135L164.354 173.78L182.194 161.999L155.445 137.467L175.862 100.41L156.908 98.5424L142.569 130.683C142.288 127.201 142.07 123.693 141.918 120.161C141.612 113.096 141.543 105.935 141.71 98.675L122.829 98.5081Z" fill="white"/>
<path d="M215.534 91.8797L217.996 174.607L237.411 175.013L236.52 154.408L254.955 174.582L278.514 173.826L249.082 141.807C259.365 132.057 264.339 123.323 264.005 115.605C263.826 111.462 262.109 107.626 258.855 104.097C250.466 94.979 237.833 90.7848 220.957 91.5143C219.169 91.5915 217.362 91.7134 215.534 91.8797ZM235.449 129.618L234.544 108.686C242.664 109.559 246.83 112.437 247.041 117.321C247.212 121.289 243.348 125.388 235.449 129.618Z" fill="white"/>
<path d="M272.696 139.28C272.562 128.101 274.847 118.303 279.551 109.887C285.187 99.7694 293.172 94.4874 303.507 94.0407C314.278 93.5752 322.18 95.9641 327.212 101.208C331.285 105.488 334.706 113.379 337.475 124.88C338.542 129.334 339.162 133.589 339.338 137.644C339.709 146.235 337.927 153.52 333.991 159.501C328.252 168.225 319.16 172.659 306.715 172.804C294.27 172.948 285.608 170.155 280.729 164.425C275.485 158.316 272.807 149.935 272.696 139.28ZM314.509 119.647C310.968 116.567 307.693 115.092 304.685 115.222C301.022 115.381 297.748 117.969 294.863 122.987C292.262 127.512 291.052 131.867 291.233 136.054C291.405 140.022 292.844 144.001 295.55 147.991C298.584 152.49 301.955 154.66 305.661 154.5C309.543 154.332 313.213 151.814 316.672 146.947C319.925 142.35 321.464 138.024 321.288 133.968C321.083 129.215 318.823 124.441 314.509 119.647Z" fill="white"/>
<path d="M341.838 97.4299C342.022 103.713 342.25 109.994 342.522 116.274C343.247 133.063 344.348 149.944 345.825 166.919L363.093 166.173C361.137 155.291 359.96 145.228 359.56 135.984C359.483 134.196 359.428 132.429 359.397 130.683L378.862 167.129L396.105 165.794C393.629 149.955 392.077 134.753 391.447 120.188C391.055 111.118 391.023 102.294 391.352 93.717L373.534 93.8973C373.594 97.3024 373.691 100.553 373.825 103.649C374.313 114.943 375.267 123.88 376.688 130.459L361.222 97.1163L341.838 97.4299Z" fill="white"/>
<path d="M428.516 125.729L424.106 110.126L421.074 126.378L428.516 125.729ZM418.787 138.666L413.943 164.565L397.019 162.675L414.847 86.9345L431.461 86.2164L456.908 156.416L438.665 161.923L432 138.095L418.787 138.666Z" fill="white"/>
</g>
<defs>
<clipPath id="clip0">
<rect width="520" height="225" fill="white"/>
</clipPath>
<clipPath id="clip1">
<rect x="263.42" y="53" width="47" height="46" transform="rotate(11.8104 263.42 53)" fill="white"/>
</clipPath>
</defs>
</svg>
