<svg width="136" height="126" viewBox="0 0 136 126" fill="none" xmlns="http://www.w3.org/2000/svg">
<path d="M94.8742 78.6514C93.6696 78.3284 92.9552 77.0846 93.2771 75.8749C93.5985 74.6652 94.8347 73.9459 96.0393 74.2695L121.82 81.2133C123.024 81.5363 123.739 82.7795 123.417 83.9898C123.095 85.1995 121.859 85.9187 120.655 85.5952L94.8742 78.6514ZM102.712 61.6348C101.465 61.6348 100.454 60.6181 100.454 59.3641C100.454 58.1101 101.465 57.0934 102.712 57.0934H133.284C134.531 57.0934 135.543 58.1101 135.543 59.3641C135.543 60.6181 134.531 61.6348 133.284 61.6348H102.712ZM105.765 41.8383C104.562 42.1619 103.325 41.4432 103.003 40.2329C102.682 39.0232 103.397 37.7806 104.6 37.4565L120.655 33.1325C121.859 32.8095 123.095 33.5282 123.417 34.7379C123.739 35.9481 123.024 37.1908 121.82 37.5144L105.765 41.8383Z" fill="white"/>
<path d="M13.2015 26.0842C12.4126 27.7816 10.4026 28.5139 8.71461 27.7208C7.02659 26.9272 6.2975 24.908 7.08701 23.2107C10.2716 16.3821 15.3306 10.6452 21.5925 6.58578C27.7099 2.61944 34.9917 0.248271 42.8078 0.0189308C66.4866 -0.675902 85.1306 17.8433 85.8105 41.2621C86.1019 51.277 82.9591 61.7364 75.5304 70.9179C71.0113 76.5033 67.6098 79.9366 64.7099 82.8641C58.9365 88.6929 55.2803 92.3839 48.4005 108.567C44.6845 117.308 38.692 122.473 32.1708 124.708C27.9928 126.14 23.6053 126.346 19.4623 125.503C15.3199 124.659 11.4254 122.765 8.22724 119.996C3.28796 115.719 0 109.387 0 101.645C0 99.7637 1.51748 98.2389 3.38848 98.2389C5.25949 98.2389 6.77697 99.7637 6.77697 101.645C6.77697 107.253 9.12349 111.808 12.6481 114.86C14.9652 116.867 17.7861 118.24 20.7855 118.85C23.7832 119.46 26.9627 119.309 29.9994 118.269C34.8195 116.617 39.303 112.673 42.1793 105.906C49.5696 88.5215 53.5821 84.4711 59.918 78.0746C62.7152 75.251 65.9947 71.9398 70.2884 66.6343C76.6243 58.8032 79.3063 49.9237 79.0595 41.4489C78.4892 21.7813 62.9021 6.22076 42.9931 6.8049C36.4646 6.99507 30.3727 8.98249 25.2459 12.3062C20.0355 15.6844 15.8344 20.4387 13.2015 26.0842ZM30.2716 57.3636C28.7982 58.2208 26.9492 57.8359 25.9259 56.5308C24.1181 54.393 22.7158 51.9741 21.7642 49.3929C20.7946 46.7629 20.2874 43.9648 20.2874 41.1236C20.2874 34.5971 22.9067 28.6779 27.1412 24.3857C31.3779 20.0907 37.2281 17.434 43.6855 17.434C56.3025 17.434 66.556 27.5522 67.0547 40.179C67.1276 42.0523 65.6762 43.631 63.8119 43.7048C61.9477 43.778 60.3771 42.3191 60.3043 40.4452C59.9491 31.4516 52.6802 24.2461 43.6855 24.2461C39.0918 24.2461 34.937 26.1296 31.9319 29.1758C30.6776 30.4468 29.6233 31.9227 28.8202 33.5497C30.7143 33.0774 32.6492 32.8356 34.5817 32.8356C41.2666 32.8356 47.323 35.5865 51.7094 40.0325C56.0924 44.4763 58.8037 50.6037 58.8037 57.3608C58.8037 61.7602 57.7262 66.2068 55.6242 70.0278C53.6239 73.6649 50.6917 76.7451 46.8672 78.7138C44.606 79.877 42.5362 80.4021 40.5449 80.9067C36.8334 81.8474 33.5036 82.692 31.7252 89.9708C31.0515 92.728 29.5628 95.0435 27.5715 96.6846C25.5136 98.3791 22.9496 99.3493 20.21 99.3493C16.9673 99.3493 14.0278 98.013 11.8975 95.8536C9.76956 93.697 8.4537 90.7292 8.4537 87.4611C8.4537 86.1117 8.68751 84.7697 9.13535 83.493C9.57529 82.2334 10.231 81.0452 11.0809 79.9843C12.2505 78.5219 14.3785 78.2897 15.8327 79.4654C17.2875 80.641 17.5185 82.7795 16.3489 84.2418C15.988 84.6925 15.7062 85.2051 15.5136 85.7547C15.3272 86.286 15.2301 86.8633 15.2301 87.4611C15.2301 88.878 15.7869 90.1507 16.6883 91.0641C17.5862 91.9746 18.8304 92.5372 20.2089 92.5372C21.3672 92.5372 22.4368 92.1393 23.2817 91.4427C24.1706 90.711 24.8427 89.6449 25.1589 88.3478C27.9081 77.0954 33.1066 75.7767 38.9026 74.3081C40.5618 73.8874 42.2866 73.4498 43.7956 72.6738C46.3347 71.3664 48.3136 69.2643 49.6932 66.7552C51.235 63.952 52.0257 60.6533 52.0257 57.3608C52.0257 52.4544 50.0728 48.0225 46.9164 44.822C43.7623 41.6254 39.4007 39.6476 34.58 39.6476C32.9784 39.6476 31.4135 39.8622 29.926 40.2789C28.9518 40.5519 27.9934 40.917 27.0638 41.3694C27.0926 43.3307 27.4529 45.2511 28.1159 47.0518C28.5497 48.228 29.1105 49.3537 29.7893 50.4039C30.3286 50.3034 30.8719 50.2529 31.4135 50.2529C33.9159 50.2529 36.1822 51.273 37.8228 52.9216C39.4634 54.5706 40.4783 56.8487 40.4783 59.3641C40.4783 61.8794 39.4634 64.157 37.8228 65.8066C36.1828 67.4551 33.9159 68.4752 31.4135 68.4752C29.5425 68.4752 28.025 66.9499 28.025 65.0692C28.025 63.1885 29.5425 61.6632 31.4135 61.6632C32.046 61.6632 32.6181 61.406 33.0309 60.9899C33.4443 60.5749 33.7007 59.9993 33.7007 59.3641C33.7007 58.7289 33.4449 58.1538 33.0309 57.7383C32.6181 57.3227 32.046 57.065 31.4135 57.065C31.2012 57.065 31.0012 57.0905 30.8177 57.1394C30.62 57.1927 30.4354 57.2682 30.2716 57.3636Z" fill="white"/>
</svg>
